<svg xmlns="http://www.w3.org/2000/svg" xmlns:xlink="http://www.w3.org/1999/xlink" viewBox="0,0,256,256" width="16px" height="16px" fill-rule="nonzero"><defs><linearGradient x1="32" y1="6" x2="32" y2="56" gradientUnits="userSpaceOnUse" id="color-1"><stop offset="0" stop-color="#e090f0"></stop><stop offset="1" stop-color="#05bdf5"></stop></linearGradient><linearGradient x1="44" y1="15.652" x2="44" y2="62.869" gradientUnits="userSpaceOnUse" id="color-2"><stop offset="0" stop-color="#fcf3fd"></stop><stop offset="1" stop-color="#6edafc"></stop></linearGradient><linearGradient x1="32" y1="45.848" x2="32" y2="53.488" gradientUnits="userSpaceOnUse" id="color-3"><stop offset="0" stop-color="#fcf3fd"></stop><stop offset="1" stop-color="#6edafc"></stop></linearGradient></defs><g fill="none" fill-rule="nonzero" stroke="none" stroke-width="1" stroke-linecap="butt" stroke-linejoin="miter" stroke-miterlimit="10" stroke-dasharray="" stroke-dashoffset="0" font-family="none" font-weight="none" font-size="none" text-anchor="none" style="mix-blend-mode: normal"><g transform="scale(4,4)"><path d="M55.707,29.293l-23,-23c-0.391,-0.391 -1.023,-0.391 -1.414,0l-23,23c-0.188,0.187 -0.293,0.442 -0.293,0.707v25c0,0.552 0.447,1 1,1h46c0.553,0 1,-0.448 1,-1v-25c0,-0.265 -0.105,-0.52 -0.293,-0.707zM18,45v9h-8v-9.586l8,-8zM18.293,33.293l-8.293,8.293v-11.172l22,-22l5.586,5.586l-6.293,6.293c0,0 0,0.001 -0.001,0.001c-0.001,0.001 -0.002,0.001 -0.002,0.001l-12.734,12.823c-0.093,0.047 -0.185,0.097 -0.263,0.175zM44,54h-24v-8h24zM44,44h-24v-9.497l12.003,-12.086l11.997,11.997zM54,54h-8v-9v-11c0,-0.265 -0.105,-0.52 -0.293,-0.707l-12.293,-12.293l5.586,-5.586l15,15z" fill="url(#color-1)"></path><path d="M39,18l-3,3l12,12v19h4v-20v-1z" fill="url(#color-2)"></path><rect x="22" y="48" width="20" height="4" fill="url(#color-3)"></rect></g></g></svg>