<svg xmlns="http://www.w3.org/2000/svg" xmlns:xlink="http://www.w3.org/1999/xlink" viewBox="0,0,256,256" width="24px" height="24px" fill-rule="nonzero"><defs><linearGradient x1="20.43" y1="20.594" x2="29.588" y2="20.594" gradientUnits="userSpaceOnUse" id="color-1"><stop offset="0" stop-color="#ffffff"></stop><stop offset="1" stop-color="#b28cf1"></stop></linearGradient><linearGradient x1="38.962" y1="38.995" x2="47.942" y2="38.995" gradientUnits="userSpaceOnUse" id="color-2"><stop offset="0" stop-color="#ffffff"></stop><stop offset="1" stop-color="#b28cf1"></stop></linearGradient><linearGradient x1="32" y1="5.596" x2="32" y2="51.515" gradientUnits="userSpaceOnUse" id="color-3"><stop offset="0" stop-color="#e5b2ca"></stop><stop offset="1" stop-color="#7028e4"></stop></linearGradient><linearGradient x1="31.999" y1="5.596" x2="31.999" y2="51.515" gradientUnits="userSpaceOnUse" id="color-4"><stop offset="0" stop-color="#e5b2ca"></stop><stop offset="1" stop-color="#7028e4"></stop></linearGradient></defs><g fill="none" fill-rule="nonzero" stroke="none" stroke-width="1" stroke-linecap="butt" stroke-linejoin="miter" stroke-miterlimit="10" stroke-dasharray="" stroke-dashoffset="0" font-family="none" font-weight="none" font-size="none" text-anchor="none" style="mix-blend-mode: normal"><g transform="scale(4,4)"><path d="M29,24.6v0c-0.8,0.8 -2,0.8 -2.8,0l-5.2,-5.2c-0.8,-0.8 -0.8,-2 0,-2.8v0c0.8,-0.8 2,-0.8 2.8,0l5.2,5.2c0.8,0.7 0.8,2 0,2.8z" fill="url(#color-1)"></path><path d="M47.4,42.9v0c-0.8,0.8 -2,0.8 -2.8,0l-5,-5c-0.8,-0.8 -0.8,-2 0,-2.8v0c0.8,-0.8 2,-0.8 2.8,0l5,5c0.7,0.8 0.7,2 0,2.8z" fill="url(#color-2)"></path><path d="M50,9h-36c-2.8,0 -5,2.2 -5,5v36c0,2.8 2.2,5 5,5h36c2.8,0 5,-2.2 5,-5v-36c0,-2.8 -2.2,-5 -5,-5zM53,50c0,1.7 -1.3,3 -3,3h-36c-1.7,0 -3,-1.3 -3,-3v-36c0,-1.7 1.3,-3 3,-3h36c1.7,0 3,1.3 3,3z" fill="url(#color-3)"></path><path d="M48.1,39.4l-5,-5c-0.2,-0.2 -0.3,-0.3 -0.5,-0.4c-0.5,-0.3 -1.1,-0.5 -1.8,-0.5v0c-0.8,0 -1.6,0.3 -2.2,0.9l-3.3,3.3c-3.9,-2 -6.9,-5.1 -9,-9l3.3,-3.3c0.1,-0.1 0.3,-0.3 0.4,-0.5c0.3,-0.5 0.5,-1.1 0.5,-1.7c0,-0.6 -0.2,-1.2 -0.5,-1.7c-0.1,-0.2 -0.2,-0.3 -0.4,-0.5l-5.1,-5.1c-0.3,-0.3 -0.6,-0.5 -1,-0.7c-0.2,-0.1 -0.4,-0.1 -0.6,-0.2c-0.2,0 -0.4,-0.1 -0.6,-0.1v0c-0.8,0 -1.6,0.3 -2.2,0.9l-3,3c-2.4,2.4 -2.9,6.1 -1.1,9c5,8.2 11.7,14.9 20,20c1.1,0.7 2.5,1.1 3.8,1.1c2,0 3.8,-0.8 5.2,-2.2l3,-3c1.1,-1.1 1.2,-2.7 0.4,-3.9c0,-0.1 -0.2,-0.3 -0.3,-0.4zM21.7,17.3c0.2,-0.2 0.4,-0.3 0.7,-0.3c0.1,0 0.1,0 0.2,0c0.2,0 0.4,0.1 0.5,0.3l5.2,5.2c0.2,0.2 0.3,0.4 0.3,0.7c0,0.3 -0.1,0.5 -0.3,0.7c-0.4,0.4 -1,0.4 -1.4,0l-5.2,-5.2c-0.4,-0.4 -0.4,-1 0,-1.4zM43.6,45.4c-1,1 -2.4,1.6 -3.8,1.6c-1,0 -1.9,-0.3 -2.8,-0.8c-8,-4.8 -14.4,-11.3 -19.3,-19.3c-1.3,-2.1 -0.9,-4.8 0.8,-6.6l1.1,-1.1c0.1,0.3 0.3,0.6 0.6,0.9l5.2,5.2c0.2,0.2 0.5,0.4 0.8,0.6l-1.4,1.4c-0.6,0.6 -0.7,1.4 -0.3,2.1c2.3,4.4 5.6,7.8 10,10c0.7,0.4 1.6,0.2 2.1,-0.3l1.5,-1.5c0.1,0.4 0.4,0.7 0.7,1l5,5c0.3,0.3 0.6,0.5 1,0.6zM46.6,42.2c-0.4,0.4 -1,0.4 -1.4,0l-5,-5c-0.1,-0.2 -0.2,-0.4 -0.2,-0.7c0,-0.3 0.1,-0.5 0.3,-0.7c0.2,-0.2 0.5,-0.3 0.7,-0.3c0.1,0 0.3,0 0.4,0.1v0c0.1,0 0.1,0.1 0.2,0.1l5.1,5.1c0.1,0.1 0.1,0.2 0.2,0.3c0.1,0.4 0,0.8 -0.3,1.1z" fill="url(#color-4)"></path></g></g></svg>